<?xml version="1.0" encoding="UTF-8"?><svg xmlns="http://www.w3.org/2000/svg" xmlns:xlink="http://www.w3.org/1999/xlink" viewBox="0 0 199.71 65.17"><defs><style>.ay{fill:url(#ag);}.ay,.az,.ba,.bb,.bc,.bd,.be,.bf,.bg,.bh,.bi,.bj,.bk,.bl,.bm,.bn,.bo,.bp,.bq,.br,.bs,.bt,.bu,.bv,.bw,.bx,.by,.bz,.ca,.cb,.cc,.cd{opacity:.69;}.ay,.bl,.bo{mix-blend-mode:screen;}.ce{fill:url(#al);}.cf{fill:url(#am);}.az{fill:url(#w);}.cg{fill:url(#aq);}.ba{fill:url(#r);}.ba,.bm,.bp,.bu,.bw,.by{mix-blend-mode:multiply;}.bb{fill:url(#j);}.bc{fill:url(#n);}.ch{fill:url(#at);}.bd{fill:url(#aa);}.be{fill:url(#e);}.bf{fill:url(#x);}.ci{fill:url(#as);}.cj{fill:url(#ap);}.ck{isolation:isolate;}.bg{fill:url(#d);}.bh{fill:url(#k);}.bi{fill:url(#p);}.bj{fill:url(#h);}.cl{fill:url(#au);}.bk{fill:url(#f);}.cm{fill:#6d6e71;}.bl{fill:url(#af);}.bm{fill:url(#u);}.cn{fill:url(#av);}.bn{fill:url(#q);}.bo{fill:url(#ah);}.co{fill:url(#ai);}.bp{fill:url(#s);}.bq{fill:url(#ad);}.cp{fill:url(#ar);}.cq{fill:url(#aj);}.br{fill:url(#g);}.bs{fill:url(#ae);}.bt{fill:url(#ac);}.bu{fill:url(#y);}.cr{fill:url(#b);}.bv{fill:url(#v);}.cs{fill:url(#an);}.bw{fill:url(#z);}.bx{fill:url(#ab);}.ct{fill:url(#ao);}.cu{fill:url(#ax);}.by{fill:url(#t);}.bz{fill:url(#i);}.ca{fill:url(#m);}.cb{fill:url(#l);}.cc{fill:url(#c);}.cv{fill:url(#aw);}.cd{fill:url(#o);}.cw{fill:url(#ak);}</style><radialGradient id="b" cx="26.69" cy="32.58" fx="26.69" fy="32.58" r="24.65" gradientUnits="userSpaceOnUse"><stop offset="0" stop-color="#fff"/><stop offset=".5" stop-color="#cbccce"/><stop offset=".99" stop-color="#94969b"/></radialGradient><radialGradient id="c" cx="-2676.04" cy="45.03" fx="-2676.04" fy="45.03" r="24.39" gradientTransform="translate(-2641.57) rotate(-180) scale(1 -1)" gradientUnits="userSpaceOnUse"><stop offset="0" stop-color="#39f6fa"/><stop offset="1" stop-color="#456fff"/></radialGradient><radialGradient id="d" cx="502.77" cy="31.62" fx="502.77" fy="31.62" r="21.19" gradientTransform="translate(-484.67)" xlink:href="#c"/><linearGradient id="e" x1="511.53" y1="18.21" x2="510.81" y2="6.01" gradientTransform="translate(-484.67)" gradientUnits="userSpaceOnUse"><stop offset="0" stop-color="#7cc4f4"/><stop offset=".54" stop-color="#72aff4"/><stop offset="1" stop-color="#699bf4"/></linearGradient><linearGradient id="f" x1="519.61" y1="18.1" x2="522.67" y2="12.51" gradientTransform="translate(-484.67)" gradientUnits="userSpaceOnUse"><stop offset="0" stop-color="#3872d6"/><stop offset=".37" stop-color="#3268dc"/><stop offset=".99" stop-color="#224eee"/><stop offset="1" stop-color="#224eef"/></linearGradient><linearGradient id="g" x1="533.71" y1="18.78" x2="524.34" y2="25.16" gradientTransform="translate(-484.67)" gradientUnits="userSpaceOnUse"><stop offset="0" stop-color="#0d36f4"/><stop offset=".27" stop-color="#1139f4"/><stop offset=".56" stop-color="#1e44f7"/><stop offset=".87" stop-color="#3356fc"/><stop offset="1" stop-color="#4061ff"/></linearGradient><linearGradient id="h" x1="528.14" y1="32.58" x2="533.95" y2="32.58" gradientTransform="translate(-484.67)" gradientUnits="userSpaceOnUse"><stop offset="0" stop-color="#133fc7"/><stop offset=".38" stop-color="#103bc2"/><stop offset=".77" stop-color="#0732b6"/><stop offset="1" stop-color="#002aab"/></linearGradient><linearGradient id="i" x1="-14343.46" y1="32.58" x2="-14337.65" y2="32.58" gradientTransform="translate(-14333.37) rotate(-180) scale(1 -1)" xlink:href="#h"/><linearGradient id="j" x1="523.98" y1="39.77" x2="534.02" y2="45.42" gradientTransform="translate(-484.67)" gradientUnits="userSpaceOnUse"><stop offset="0" stop-color="#005ed9"/><stop offset=".29" stop-color="#086edd"/><stop offset=".7" stop-color="#1280e3"/><stop offset="1" stop-color="#1687e5"/></linearGradient><linearGradient id="k" x1="500.18" y1="12.18" x2="504.14" y2="17.47" gradientTransform="translate(-484.67)" gradientUnits="userSpaceOnUse"><stop offset="0" stop-color="#3872d6"/><stop offset=".22" stop-color="#3f7bdb"/><stop offset=".59" stop-color="#5395ea"/><stop offset="1" stop-color="#6eb9ff"/></linearGradient><linearGradient id="l" x1="498.85" y1="25.27" x2="488.81" y2="19.92" gradientTransform="translate(-484.67)" gradientUnits="userSpaceOnUse"><stop offset="0" stop-color="#b8dee1"/><stop offset=".22" stop-color="#aed9e4"/><stop offset=".58" stop-color="#94ccef"/><stop offset="1" stop-color="#6eb9ff"/></linearGradient><linearGradient id="m" x1="499.34" y1="25.62" x2="492.08" y2="19.14" xlink:href="#l"/><linearGradient id="n" x1="498.51" y1="40.03" x2="489.25" y2="44.11" gradientTransform="translate(-484.67)" gradientUnits="userSpaceOnUse"><stop offset="0" stop-color="#1f4bff"/><stop offset=".45" stop-color="#244df7"/><stop offset="1" stop-color="#2f53e7"/></linearGradient><linearGradient id="o" x1="511.53" y1="47.1" x2="511.17" y2="58.4" gradientTransform="translate(-484.67)" gradientUnits="userSpaceOnUse"><stop offset="0" stop-color="#0d61d1"/><stop offset=".29" stop-color="#156de1"/><stop offset=".7" stop-color="#1f7af3"/><stop offset="1" stop-color="#237ffa"/></linearGradient><linearGradient id="p" x1="511.53" y1="52.78" y2="52.78" xlink:href="#h"/><linearGradient id="q" x1="489.12" y1="52.78" x2="511.53" y2="52.78" gradientTransform="translate(-484.67)" gradientUnits="userSpaceOnUse"><stop offset="0" stop-color="#1837c7"/><stop offset=".21" stop-color="#1533bf"/><stop offset=".54" stop-color="#0f2aa9"/><stop offset=".94" stop-color="#051c86"/><stop offset="1" stop-color="#041a80"/></linearGradient><linearGradient id="r" x1="514.77" y1="33.78" x2="511.47" y2="47.24" gradientTransform="translate(-484.67)" gradientUnits="userSpaceOnUse"><stop offset="0" stop-color="#fff"/><stop offset=".27" stop-color="#fbfcff"/><stop offset=".49" stop-color="#f1f4ff"/><stop offset=".7" stop-color="#dfe6ff"/><stop offset=".9" stop-color="#c7d4ff"/><stop offset="1" stop-color="#b8c8ff"/></linearGradient><linearGradient id="s" x1="511.53" y1="32.4" x2="511.53" y2="18.52" xlink:href="#r"/><linearGradient id="t" x1="523.9" y1="39.71" x2="508.81" y2="28.71" xlink:href="#r"/><linearGradient id="u" x1="511.18" y1="32.33" x2="499.15" y2="39.73" gradientTransform="translate(-484.67)" gradientUnits="userSpaceOnUse"><stop offset="0" stop-color="#fff"/><stop offset=".41" stop-color="#fcfdff"/><stop offset=".6" stop-color="#f5f7ff"/><stop offset=".75" stop-color="#e8edff"/><stop offset=".87" stop-color="#d6dfff"/><stop offset=".97" stop-color="#becdff"/><stop offset="1" stop-color="#b8c8ff"/></linearGradient><linearGradient id="v" x1="507.28" y1="15.15" x2="508.72" y2="4.93" xlink:href="#e"/><linearGradient id="w" x1="505.8" y1="9.94" x2="508.83" y2="13.97" xlink:href="#k"/><linearGradient id="x" x1="520.91" y1="18.74" x2="528.36" y2="16.46" xlink:href="#f"/><linearGradient id="y" x1="514.19" y1="44.7" x2="513.71" y2="58.53" xlink:href="#r"/><linearGradient id="z" x1="503.64" y1="55.03" x2="506.64" y2="47.81" xlink:href="#r"/><linearGradient id="aa" x1="506.01" y1="48.68" x2="515.49" y2="61.36" gradientTransform="translate(-484.67)" gradientUnits="userSpaceOnUse"><stop offset="0" stop-color="#5e8ef0"/><stop offset="1" stop-color="#1d62f0"/></linearGradient><linearGradient id="ab" x1="526.86" y1="32.75" x2="530.01" y2="49.23" xlink:href="#aa"/><linearGradient id="ac" x1="529.78" y1="27.29" x2="519.45" y2="19.22" gradientTransform="translate(-484.67)" gradientUnits="userSpaceOnUse"><stop offset="0" stop-color="#5e8ef0"/><stop offset="1" stop-color="#adc3f0"/></linearGradient><linearGradient id="ad" x1="497.28" y1="45.94" x2="496.18" y2="32.24" xlink:href="#ac"/><radialGradient id="ae" cx="503.22" cy="18.11" fx="503.22" fy="18.11" r="16.72" gradientTransform="translate(-484.67)" gradientUnits="userSpaceOnUse"><stop offset="0" stop-color="#fff"/><stop offset=".44" stop-color="#d3dff7"/><stop offset=".79" stop-color="#b7caf1"/><stop offset="1" stop-color="#adc3f0"/></radialGradient><radialGradient id="af" cx="167.57" cy="-999.72" fx="167.57" fy="-999.72" r="3.39" gradientTransform="translate(-853.17 537) rotate(49.75)" gradientUnits="userSpaceOnUse"><stop offset="0" stop-color="#fff"/><stop offset=".22" stop-color="#b3b3b3"/><stop offset=".43" stop-color="#737373"/><stop offset=".61" stop-color="#414141"/><stop offset=".78" stop-color="#1d1d1d"/><stop offset=".91" stop-color="#070707"/><stop offset=".99" stop-color="#000"/></radialGradient><radialGradient id="ag" cx="167.45" cy="-999.7" fx="167.45" fy="-999.7" r="3.78" gradientTransform="translate(-807.31 607.31) rotate(45)" gradientUnits="userSpaceOnUse"><stop offset="0" stop-color="#fff"/><stop offset=".09" stop-color="#f1f1f1"/><stop offset=".26" stop-color="#cdcdcd"/><stop offset=".49" stop-color="#929292"/><stop offset=".78" stop-color="#424242"/><stop offset=".99" stop-color="#000"/></radialGradient><radialGradient id="ah" cx="187.74" cy="-980.17" fx="187.74" fy="-980.17" r=".34" gradientTransform="translate(-807.31 607.31) rotate(45)" gradientUnits="userSpaceOnUse"><stop offset="0" stop-color="#fff"/><stop offset=".22" stop-color="#cbcbcb"/><stop offset=".72" stop-color="#4a4a4a"/><stop offset=".99" stop-color="#000"/></radialGradient><linearGradient id="ai" x1="59.76" y1="37.64" x2="59.76" y2="47.17" gradientUnits="userSpaceOnUse"><stop offset="0" stop-color="#1c75bc"/><stop offset=".55" stop-color="#00aeef"/><stop offset="1" stop-color="#1c75bc"/></linearGradient><linearGradient id="aj" x1="65.71" y1="37.64" x2="65.71" y2="47.17" xlink:href="#ai"/><linearGradient id="ak" x1="72.31" y1="37.64" x2="72.31" y2="47.17" xlink:href="#ai"/><linearGradient id="al" x1="80.95" y1="37.64" x2="80.95" y2="47.17" xlink:href="#ai"/><linearGradient id="am" x1="89.4" y1="37.64" x2="89.4" y2="47.17" xlink:href="#ai"/><linearGradient id="an" x1="98.41" y1="37.64" x2="98.41" y2="47.17" xlink:href="#ai"/><linearGradient id="ao" x1="106.52" y1="37.64" x2="106.52" y2="47.17" xlink:href="#ai"/><linearGradient id="ap" x1="57.95" y1="16.66" x2="57.95" y2="33.82" xlink:href="#ai"/><linearGradient id="aq" x1="70.75" y1="16.66" x2="70.75" y2="33.82" xlink:href="#ai"/><linearGradient id="ar" x1="88.87" y1="16.66" x2="88.87" y2="33.82" xlink:href="#ai"/><linearGradient id="as" x1="104.57" y1="16.66" x2="104.57" y2="33.82" xlink:href="#ai"/><linearGradient id="at" x1="120.22" y1="16.66" x2="120.22" y2="33.82" xlink:href="#ai"/><linearGradient id="au" x1="136.63" y1="16.66" x2="136.63" y2="33.82" xlink:href="#ai"/><linearGradient id="av" x1="153.47" y1="16.41" x2="153.47" y2="33.99" xlink:href="#ai"/><linearGradient id="aw" x1="171.33" y1="16.66" x2="171.33" y2="33.82" xlink:href="#ai"/><linearGradient id="ax" x1="187.23" y1="16.66" x2="187.23" y2="33.82" xlink:href="#ai"/></defs><g class="ck"><g id="a"><polygon class="cr" points="4.28 18.88 26.69 5.89 49.1 18.88 49.1 46.29 26.69 59.28 4.28 46.29 4.28 18.88"/><polygon class="cc" points="18.56 18.21 10.26 32.58 18.56 46.96 35.17 46.96 43.47 32.58 35.17 18.21 18.56 18.21"/><polygon class="cc" points="18.56 18.21 10.26 32.58 18.56 46.96 35.17 46.96 43.47 32.58 35.17 18.21 18.56 18.21"/><polygon class="bg" points="10.26 32.58 39.18 25.15 35.17 18.21 18.56 18.21 10.26 32.58"/><polygon class="be" points="35.17 18.21 18.56 18.21 26.86 5.89 35.17 18.21"/><polygon class="bk" points="49.28 18.88 35.17 18.21 26.86 5.89 49.28 18.88"/><polygon class="br" points="43.47 32.58 35.17 18.21 49.28 18.88 43.47 32.58"/><polygon class="bj" points="49.28 18.88 49.28 46.29 43.47 32.58 49.28 18.88"/><polygon class="bz" points="4.28 18.88 4.28 46.29 10.09 32.58 4.28 18.88"/><polygon class="bb" points="43.47 32.58 35.17 46.96 49.28 46.29 43.47 32.58"/><polygon class="bh" points="26.86 5.89 18.56 18.21 4.45 18.88 26.86 5.89"/><polygon class="cb" points="18.56 18.21 10.26 32.58 4.45 18.88 18.56 18.21"/><polygon class="ca" points="13.37 18.45 7.18 25.32 8.52 28.48 15.86 18.34 13.37 18.45"/><polygon class="bc" points="10.26 32.58 18.56 46.96 4.45 46.29 10.26 32.58"/><polygon class="cd" points="35.17 46.96 26.86 59.28 18.56 46.96 35.17 46.96"/><polygon class="bi" points="35.17 46.96 49.28 46.29 26.86 59.28 35.17 46.96"/><polygon class="bn" points="18.56 46.96 26.86 59.28 4.45 46.29 18.56 46.96"/><polygon class="ba" points="18.56 46.96 35.17 46.96 26.86 32.58 18.56 46.96"/><polygon class="bp" points="35.17 18.21 18.56 18.21 26.86 32.58 35.17 18.21"/><polygon class="by" points="26.86 32.58 35.17 46.96 43.47 32.58 26.86 32.58"/><polygon class="bm" points="10.26 32.58 18.56 46.96 26.86 32.58 10.26 32.58"/><polygon class="bv" points="25.79 18.21 26.86 5.89 18.56 18.21 25.79 18.21"/><polygon class="az" points="18.26 10.88 18.56 18.21 26.86 5.89 18.26 10.88"/><polygon class="bf" points="35.17 18.21 49.28 18.88 39.95 13.47 35.17 18.21"/><path class="bu" d="m23.71,46.96c1.22,4.99,3.15,12.32,3.15,12.32l8.3-12.32h-11.46Z"/><polygon class="bw" points="18.56 46.96 26.86 59.28 11.29 50.25 18.56 46.96"/><path class="bd" d="m31.02,46.87l-4.15-.05c-1.38-.02-2.77-.02-4.15-.03l-4.05-.02-2.04-3.5c-.7-1.19-1.39-2.39-2.1-3.58l-2.12-3.57c-.72-1.18-1.42-2.37-2.15-3.55.66,1.22,1.33,2.43,2,3.64l2.03,3.62c.67,1.21,1.37,2.41,2.05,3.61l1.9,3.32-3.2-.14-1.76-.08c-.59-.03-1.18-.04-1.76-.07l-3.53-.12c-1.18-.03-2.35-.07-3.53-.08,1.17.1,2.35.17,3.52.25l3.53.22c.59.04,1.18.08,1.76.1l1.76.09,3.43.18h0s.01,0,.01,0c.33.49.66.97.99,1.46l1.04,1.53c.7,1.02,1.39,2.05,2.1,3.07l2.12,3.05c.72,1.01,1.42,2.03,2.15,3.03-.66-1.05-1.33-2.09-2-3.13l-2.03-3.11c-.67-1.04-1.37-2.06-2.06-3.09l-1.03-1.54c-.28-.42-.56-.84-.85-1.26h3.81c1.38-.02,2.77-.02,4.15-.04l4.15-.05c1.38-.03,2.77-.05,4.15-.09-1.38-.04-2.77-.06-4.15-.09Z"/><path class="bx" d="m46.5,39.38c-.46-1.15-.95-2.29-1.43-3.44l-1.4-3.35h0s0-.03,0-.03l1.4-3.35c.48-1.14.96-2.29,1.43-3.44l1.41-3.45c.46-1.15.92-2.3,1.37-3.46-.52,1.13-1.02,2.26-1.53,3.39l-1.5,3.41c-.5,1.13-.98,2.28-1.48,3.42l-1.33,3.09-1.91-3.28c-.7-1.19-1.39-2.39-2.1-3.58l-2.12-3.57c-.72-1.18-1.42-2.37-2.15-3.55.66,1.22,1.33,2.43,2,3.64l2.03,3.62c.67,1.21,1.37,2.41,2.05,3.61l2.01,3.51-2.01,3.51c-.68,1.2-1.38,2.4-2.05,3.61l-2.03,3.62c-.67,1.21-1.34,2.42-2,3.64.73-1.18,1.43-2.37,2.15-3.55l2.12-3.57c.71-1.19,1.4-2.39,2.1-3.58l1.91-3.28,1.33,3.09c.49,1.14.97,2.28,1.48,3.42l1.5,3.41c.51,1.13,1.01,2.27,1.53,3.39-.45-1.16-.91-2.31-1.37-3.46l-1.41-3.45Z"/><path class="bt" d="m40.45,18.61c.59.03,1.18.05,1.76.07l3.53.12c1.18.03,2.35.07,3.53.08-1.17-.1-2.35-.17-3.52-.26l-3.53-.22c-.59-.04-1.18-.07-1.76-.1l-1.76-.09-3.34-.18c-.07,0-.13-.04-.16-.09l-.93-1.37-1.04-1.53c-.7-1.02-1.39-2.05-2.1-3.07l-2.12-3.05c-.72-1.01-1.42-2.03-2.15-3.03.66,1.05,1.33,2.09,2,3.13l2.03,3.11c.67,1.04,1.37,2.06,2.05,3.09l1.03,1.54.82,1.22s0,.04-.02.04h-3.76c-1.38.02-2.77.02-4.15.04l-4.15.05c-1.38.03-2.77.05-4.15.09,1.38.04,2.77.06,4.15.09l4.15.05c1.38.02,2.77.02,4.15.03l3.93.02c.07,0,.14.04.17.1l1.98,3.4c.7,1.19,1.39,2.39,2.1,3.58l2.12,3.57c.72,1.18,1.42,2.37,2.15,3.55-.66-1.22-1.33-2.43-2-3.64l-2.03-3.62c-.67-1.21-1.37-2.4-2.05-3.61l-1.87-3.28s0-.04.03-.04l3.15.14,1.76.08Z"/><path class="bq" d="m14.53,39.7c-.67-1.21-1.37-2.4-2.05-3.61l-1.63-2.85c-.23-.41-.23-.91,0-1.32l1.63-2.85c.68-1.2,1.38-2.4,2.05-3.61l2.03-3.62c.67-1.21,1.34-2.42,2-3.64-.73,1.18-1.43,2.37-2.15,3.55l-2.12,3.57c-.71,1.19-1.4,2.39-2.1,3.58l-1.86,3.2s-.07.03-.08,0l-1.29-3.01c-.49-1.14-.97-2.28-1.48-3.42l-1.5-3.41c-.51-1.13-1.01-2.27-1.53-3.39.45,1.16.91,2.31,1.37,3.46l1.41,3.45c.46,1.15.95,2.29,1.43,3.44l1.18,2.81c.15.35.15.74,0,1.08l-1.18,2.83c-.48,1.15-.97,2.29-1.43,3.44l-1.41,3.45c-.46,1.15-.92,2.3-1.37,3.46.52-1.13,1.02-2.26,1.53-3.39l1.5-3.41c.5-1.13.98-2.28,1.48-3.42l1.29-3.01s.06-.04.08,0l1.86,3.2c.7,1.19,1.39,2.39,2.1,3.58l2.12,3.57c.72,1.18,1.42,2.37,2.15,3.55-.66-1.22-1.33-2.43-2-3.64l-2.03-3.62Z"/><path class="bs" d="m33.09,18.13l-2.08-.06-2.08-.04-2.08-.03c-1.38-.02-2.77-.03-4.15-.05h-3.35c-.13-.01-.2-.15-.13-.26l1.62-2.42c.68-1.03,1.37-2.06,2.04-3.1.68-1.04,1.34-2.08,2.01-3.12l.99-1.57c.33-.52.66-1.05.98-1.58-.37.5-.74,1-1.1,1.5l-1.09,1.5c-.72,1.01-1.43,2.02-2.14,3.04-.71,1.01-1.41,2.04-2.11,3.05l-1.77,2.61c-.15.22-.39.36-.66.37l-1.21.06-1.76.09-1.76.1-1.76.11-1.76.12-1.76.13-1.76.14c-.59.05-1.17.1-1.76.15.59,0,1.18,0,1.77-.01l1.77-.03,1.77-.04,1.77-.05,1.77-.06,1.76-.07,1.76-.07.99-.04c.12,0,.21.13.14.24l-1.68,2.93c-.68,1.21-1.37,2.41-2.04,3.62l-1.01,1.81-1,1.82-.98,1.83c-.33.61-.66,1.22-.98,1.83.37-.58.74-1.17,1.1-1.76l1.09-1.77,1.08-1.77,1.07-1.78c.71-1.19,1.41-2.38,2.11-3.57l1.83-3.14c.11-.19.32-.31.54-.31h3.63c1.38-.03,2.77-.03,4.15-.06l2.08-.03,2.08-.04,2.08-.06c.69-.02,1.38-.04,2.08-.07-.69-.03-1.38-.05-2.08-.07Z"/><circle class="bl" cx="18.08" cy="18.9" r="3.39" transform="translate(-1.5 1.56) rotate(-4.75)"/><path class="ay" d="m18.14,19.88c.08-.37.42-.63.81-.61l3.72.22-3.63-.82c-.37-.08-.63-.42-.61-.81l.22-3.72-.82,3.63c-.08.37-.42.63-.81.61l-3.72-.22,3.63.82c.37.08.63.42.61.81l-.22,3.72.82-3.63Z"/><path class="bo" d="m18.85,47.06c.04-.18-.07-.36-.25-.41-.18-.04-.36.07-.41.25-.04.18.07.36.25.41.18.04.36-.07.41-.25Z"/><path class="co" d="m60.88,47h-2.09l-3.09-8.28h2.33l2.29,6.66,2.07-6.66h1.41l-2.93,8.28Z"/><path class="cq" d="m66.86,47h-2.28v-8.28h2.28v8.28Z"/><path class="cw" d="m76.12,44.75c0,.23-.04.45-.12.66-.08.2-.18.39-.32.55s-.29.32-.47.45c-.18.13-.37.24-.57.33-.21.09-.42.15-.64.2-.22.04-.43.07-.64.07h-4.87v-8.28h4.45c.2,0,.4.01.62.04.21.03.42.07.63.14.21.06.4.14.59.24.19.1.35.22.49.36.14.14.25.31.33.5s.12.4.12.64-.05.44-.14.63-.22.36-.37.5c-.16.15-.33.28-.53.39-.2.11-.41.21-.64.3.28.08.55.18.8.3s.47.28.66.47c.19.18.34.4.45.65.11.25.17.54.17.87Zm-2.71-3.9c0-.47-.12-.81-.37-1.02s-.6-.32-1.05-.32h-1.2v2.68h1.01c.21,0,.41-.03.6-.08.2-.05.37-.13.52-.24.15-.11.27-.25.36-.42.09-.17.14-.37.14-.6Zm.4,3.76c0-.23-.03-.44-.09-.64-.06-.2-.15-.37-.26-.51-.12-.14-.27-.26-.45-.34-.18-.08-.39-.12-.63-.12h-1.6v3.2h1.4c.23,0,.45-.04.65-.12.2-.08.37-.18.52-.32.15-.14.26-.3.34-.5.08-.2.12-.41.12-.65Z"/><path class="ce" d="m79.53,47h-2.28v-8.28h4.07c.38,0,.75.05,1.11.14.36.09.67.23.95.43.27.19.49.44.66.75s.24.68.24,1.12c0,.34-.07.66-.22.96-.14.3-.34.57-.57.8-.24.24-.51.43-.82.59-.31.16-.63.26-.97.31.15.25.31.49.47.72.16.23.33.44.49.64s.33.38.5.55.32.32.47.46c.35.32.7.6,1.05.83h-2.85c-.23-.22-.45-.48-.66-.79-.18-.26-.35-.58-.53-.97s-.32-.83-.41-1.34h-.7v3.09Zm2.43-5.85c0-.56-.14-.96-.41-1.22-.27-.26-.68-.39-1.22-.39h-.8v3.59h.8c.29,0,.53-.05.74-.16.21-.11.37-.25.5-.44s.23-.39.29-.63c.06-.24.09-.49.09-.75Z"/><path class="cf" d="m93.38,43.04v.11c0,.32-.04.66-.1,1-.06.34-.14.69-.25,1.03-.11.34-.24.69-.39,1.02-.15.34-.32.66-.5.97-.19.31-.39.6-.6.87-.21.27-.44.51-.68.72l-.86-.49c.13-.23.26-.47.36-.74.11-.27.21-.55.3-.84s.16-.59.23-.9c.06-.31.12-.61.16-.91.04-.3.07-.6.09-.89s.03-.57.03-.84c0-.21,0-.44,0-.7s-.02-.53-.05-.8c-.03-.27-.08-.54-.14-.8-.07-.26-.16-.49-.29-.69-.13-.2-.29-.37-.49-.49-.2-.12-.45-.18-.75-.18-.26,0-.49.05-.68.14-.19.09-.35.21-.48.36-.13.15-.24.33-.32.53-.08.2-.14.41-.18.63-.04.22-.07.44-.09.67-.01.22-.02.44-.02.64v1.6h2.48v.95h-2.48v2.01h-2.28v-4.21c0-.6.1-1.16.29-1.68.19-.52.46-.97.81-1.35.35-.38.77-.68,1.26-.9.49-.22,1.04-.32,1.65-.32.41,0,.79.06,1.15.18.36.12.68.28.98.48.3.21.56.45.79.73.23.28.43.59.58.92s.27.69.35,1.06c.08.37.12.75.11,1.13Z"/><path class="cs" d="m95.69,47h-1.06v-8.28h1.48l5.03,5.68v-5.68h1.05v8.28h-1.48l-5.02-5.68v5.68Z"/><path class="ct" d="m107.66,47h-2.28v-7.22h-2.25v-1.06h6.79v1.06h-2.25v7.22Z"/><path class="cm" d="m119.89,47h-5.94v-8.28h5.94v1.06h-3.66v2.56h2.83v1.05h-2.83v2.55h3.66v1.06Z"/><path class="cm" d="m122.13,47h-1.06v-8.28h1.48l5.03,5.68v-5.68h1.05v8.28h-1.48l-5.02-5.68v5.68Z"/><path class="cm" d="m137.79,40.77l-.98.41c-.08-.25-.18-.48-.31-.68-.13-.21-.28-.38-.46-.53-.18-.15-.38-.26-.61-.34-.23-.08-.47-.12-.74-.12-.29,0-.55.05-.79.14-.24.1-.45.23-.64.39-.19.16-.36.35-.5.57-.14.22-.26.45-.35.7-.09.25-.16.5-.21.77-.05.26-.07.52-.07.78,0,.4.05.8.14,1.2.09.4.24.76.45,1.07.2.32.47.58.8.77.33.2.72.3,1.18.3.25,0,.45-.06.59-.17.14-.11.21-.31.21-.59v-2.54h2.28v4.11h-.66l-.4-.65c-.37.28-.77.49-1.22.62-.44.13-.89.2-1.35.2-.41,0-.8-.05-1.17-.15-.37-.1-.72-.24-1.04-.43-.32-.18-.61-.41-.88-.67s-.49-.55-.67-.87c-.19-.32-.33-.66-.43-1.04s-.15-.76-.15-1.17.05-.8.15-1.17.25-.72.43-1.04.41-.61.67-.87c.26-.26.55-.48.88-.67.32-.18.67-.33,1.04-.43.37-.1.76-.15,1.17-.15s.77.05,1.15.14c.37.09.72.23,1.04.42.32.19.61.42.86.7.25.28.45.61.59.99Z"/><path class="cm" d="m141.44,47h-2.28v-8.28h2.28v8.28Z"/><path class="cm" d="m144.14,47h-1.06v-8.28h1.48l5.03,5.68v-5.68h1.05v8.28h-1.48l-5.02-5.68v5.68Z"/><path class="cm" d="m158.23,47h-5.94v-8.28h5.94v1.06h-3.66v2.56h2.83v1.05h-2.83v2.55h3.66v1.06Z"/><path class="cm" d="m165.35,47h-5.94v-8.28h5.94v1.06h-3.66v2.56h2.83v1.05h-2.83v2.55h3.66v1.06Z"/><path class="cm" d="m168.81,47h-2.28v-8.28h4.07c.38,0,.75.05,1.11.14.36.09.67.23.95.43.27.19.49.44.66.75s.24.68.24,1.12c0,.34-.07.66-.22.96-.14.3-.34.57-.57.8-.24.24-.51.43-.82.59s-.63.26-.97.31c.15.25.31.49.47.72.16.23.33.44.49.64s.33.38.5.55c.16.17.32.32.47.46.35.32.7.6,1.05.83h-2.85c-.23-.22-.45-.48-.66-.79-.18-.26-.35-.58-.53-.97-.18-.39-.32-.83-.41-1.34h-.7v3.09Zm2.43-5.85c0-.56-.14-.96-.41-1.22-.27-.26-.68-.39-1.22-.39h-.8v3.59h.8c.29,0,.53-.05.74-.16.2-.11.37-.25.5-.44s.23-.39.29-.63c.06-.24.09-.49.09-.75Z"/><path class="cm" d="m177.07,47h-2.28v-8.28h2.28v8.28Z"/><path class="cm" d="m179.76,47h-1.06v-8.28h1.48l5.03,5.68v-5.68h1.05v8.28h-1.48l-5.02-5.68v5.68Z"/><path class="cm" d="m195.43,40.77l-.98.41c-.08-.25-.18-.48-.31-.68-.13-.21-.28-.38-.46-.53-.18-.15-.38-.26-.61-.34-.23-.08-.47-.12-.74-.12-.29,0-.55.05-.79.14-.24.1-.45.23-.64.39-.19.16-.36.35-.5.57-.14.22-.26.45-.35.7-.09.25-.16.5-.21.77-.05.26-.07.52-.07.78,0,.4.05.8.14,1.2.09.4.24.76.45,1.07.2.32.47.58.8.77.33.2.72.3,1.18.3.25,0,.45-.06.59-.17.14-.11.21-.31.21-.59v-2.54h2.28v4.11h-.66l-.4-.65c-.37.28-.77.49-1.22.62-.44.13-.89.2-1.35.2-.41,0-.8-.05-1.17-.15-.37-.1-.72-.24-1.04-.43-.32-.18-.61-.41-.88-.67s-.49-.55-.67-.87c-.19-.32-.33-.66-.43-1.04s-.15-.76-.15-1.17.05-.8.15-1.17.25-.72.43-1.04.41-.61.67-.87c.26-.26.55-.48.88-.67.32-.18.67-.33,1.04-.43.37-.1.76-.15,1.17-.15s.77.05,1.15.14c.37.09.72.23,1.04.42.32.19.61.42.86.7.25.28.45.61.59.99Z"/><path class="cj" d="m60.04,16.66v17.16h-4.18v-17.16h4.18Z"/><path class="cg" d="m78.42,33.82h-4.18l-6.99-10.59v10.59h-4.18v-17.16h4.18l6.99,10.64v-10.64h4.18v17.16Z"/><path class="cp" d="m97.57,16.66l-6.09,17.16h-5.23l-6.09-17.16h4.45l4.26,12.96,4.28-12.96h4.43Z"/><path class="ci" d="m103.49,20.01v3.47h5.6v3.23h-5.6v3.77h6.33v3.35h-10.52v-17.16h10.52v3.35h-6.33Z"/><path class="ch" d="m127.89,33.82h-4.18l-6.99-10.59v10.59h-4.18v-17.16h4.18l6.99,10.64v-10.64h4.18v17.16Z"/><path class="cl" d="m143.27,16.66v3.35h-4.55v13.82h-4.18v-13.82h-4.55v-3.35h13.28Z"/><path class="cn" d="m149.06,32.87c-1.34-.75-2.41-1.8-3.2-3.14-.79-1.34-1.19-2.86-1.19-4.53s.4-3.19,1.19-4.52c.79-1.34,1.86-2.38,3.2-3.13,1.35-.75,2.83-1.12,4.44-1.12s3.09.37,4.44,1.12c1.34.75,2.4,1.8,3.18,3.13.77,1.34,1.16,2.85,1.16,4.52s-.39,3.19-1.17,4.53c-.78,1.35-1.84,2.39-3.18,3.14-1.34.75-2.81,1.12-4.42,1.12s-3.09-.37-4.44-1.12Zm7.73-4.06c.82-.91,1.24-2.12,1.24-3.62s-.41-2.73-1.24-3.63c-.82-.91-1.92-1.36-3.29-1.36s-2.49.45-3.31,1.35c-.82.9-1.24,2.11-1.24,3.64s.41,2.73,1.24,3.63c.82.9,1.93,1.36,3.31,1.36s2.46-.46,3.29-1.37Z"/><path class="cv" d="m173.35,33.82l-3.57-6.48h-1v6.48h-4.18v-17.16h7.02c1.35,0,2.51.23,3.46.71.95.47,1.67,1.12,2.14,1.94s.71,1.74.71,2.75c0,1.14-.32,2.16-.97,3.06-.64.9-1.59,1.53-2.85,1.91l3.96,6.8h-4.72Zm-4.57-9.44h2.59c.76,0,1.34-.19,1.72-.56s.57-.9.57-1.59-.19-1.16-.57-1.54c-.38-.37-.96-.56-1.72-.56h-2.59v4.26Z"/><path class="cu" d="m195.26,16.66l-5.94,11.49v5.67h-4.18v-5.67l-5.94-11.49h4.74l3.32,7.19,3.3-7.19h4.69Z"/></g></g></svg>